<svg width="19" height="18" viewBox="0 0 19 18" fill="none" xmlns="http://www.w3.org/2000/svg">
<path d="M7.69087 5.52759L7.69092 5.52757L7.68864 5.52066C7.42775 4.73093 7.28638 3.88386 7.28638 3C7.28638 2.31136 6.72502 1.75 6.03638 1.75H3.41138C2.72273 1.75 2.16138 2.31136 2.16138 3C2.16138 10.3186 8.09273 16.25 15.4114 16.25C16.1 16.25 16.6614 15.6886 16.6614 15V12.3825C16.6614 11.6939 16.1 11.1325 15.4114 11.1325C14.5356 11.1325 13.6819 10.9913 12.893 10.731C12.4501 10.5804 11.9516 10.6951 11.6153 11.0314L10.2273 12.4195C8.44778 11.4318 6.97268 9.96164 5.99122 8.18477L7.37993 6.79605C7.72741 6.44857 7.82674 5.95989 7.69087 5.52759Z" stroke="#DA251C"/>
</svg>
