<svg width="19" height="18" viewBox="0 0 19 18" fill="none" xmlns="http://www.w3.org/2000/svg">
<mask id="mask0" mask-type="alpha" maskUnits="userSpaceOnUse" x="0" y="0" width="19" height="18">
<rect x="0.361328" width="18" height="18" fill="#C4C4C4"/>
</mask>
<g mask="url(#mask0)">
<mask id="path-2-inside-1" fill="white">
<path fill-rule="evenodd" clip-rule="evenodd" d="M8.99285 18C8.99285 18 15.6244 10.294 15.6244 6.63154C15.6244 2.96904 12.6554 0 8.99287 0C5.33037 0 2.36133 2.96904 2.36133 6.63154C2.36133 10.294 8.99285 18 8.99285 18ZM8.99283 9.28413C10.4578 9.28413 11.6455 8.09651 11.6455 6.6315C11.6455 5.1665 10.4578 3.97887 8.99283 3.97887C7.52782 3.97887 6.3402 5.1665 6.3402 6.6315C6.3402 8.09651 7.52782 9.28413 8.99283 9.28413Z"/>
</mask>
<path d="M8.99285 18L8.23488 18.6523L8.99285 19.5331L9.75082 18.6523L8.99285 18ZM14.6244 6.63154C14.6244 7.3005 14.3036 8.29195 13.6947 9.50405C13.1027 10.6824 12.3029 11.9457 11.4876 13.1183C10.6748 14.2873 9.85989 15.3469 9.24718 16.1153C8.94122 16.4989 8.68665 16.8088 8.50919 17.022C8.42049 17.1286 8.35112 17.2109 8.30432 17.2662C8.28091 17.2938 8.26316 17.3146 8.25145 17.3284C8.24559 17.3352 8.24125 17.3403 8.23847 17.3435C8.23708 17.3451 8.23609 17.3463 8.23549 17.347C8.23518 17.3474 8.23498 17.3476 8.23488 17.3477C8.23483 17.3478 8.23483 17.3478 8.23481 17.3478C8.23483 17.3478 8.23488 17.3477 8.99285 18C9.75082 18.6523 9.75092 18.6522 9.75104 18.652C9.75112 18.6519 9.75127 18.6518 9.75142 18.6516C9.75172 18.6512 9.75213 18.6508 9.75263 18.6502C9.75363 18.649 9.75504 18.6474 9.75684 18.6453C9.76043 18.6411 9.7656 18.635 9.7723 18.6272C9.78569 18.6115 9.80517 18.5887 9.83033 18.559C9.88067 18.4995 9.95378 18.4127 10.0464 18.3015C10.2316 18.0789 10.4951 17.7582 10.8109 17.3622C11.4416 16.5712 12.2846 15.4754 13.1297 14.2601C13.9722 13.0484 14.8304 11.6985 15.4818 10.4019C16.1163 9.13907 16.6244 7.79384 16.6244 6.63154H14.6244ZM8.99287 1C12.1031 1 14.6244 3.52133 14.6244 6.63154H16.6244C16.6244 2.41676 13.2077 -1 8.99287 -1V1ZM3.36133 6.63154C3.36133 3.52133 5.88266 1 8.99287 1V-1C4.77809 -1 1.36133 2.41676 1.36133 6.63154H3.36133ZM8.99285 18C9.75082 17.3477 9.75087 17.3478 9.7509 17.3478C9.75087 17.3478 9.75087 17.3478 9.75082 17.3477C9.75072 17.3476 9.75052 17.3474 9.75022 17.347C9.74961 17.3463 9.74862 17.3451 9.74723 17.3435C9.74445 17.3403 9.74011 17.3352 9.73425 17.3284C9.72254 17.3146 9.70479 17.2938 9.68139 17.2662C9.63458 17.2109 9.56521 17.1286 9.47651 17.022C9.29906 16.8088 9.04448 16.4989 8.73853 16.1153C8.12582 15.3469 7.31096 14.2873 6.49812 13.1183C5.68279 11.9457 4.88307 10.6824 4.29107 9.50405C3.68211 8.29195 3.36133 7.3005 3.36133 6.63154H1.36133C1.36133 7.79384 1.86948 9.13906 2.50394 10.4019C3.15535 11.6985 4.01351 13.0484 4.85606 14.2601C5.7011 15.4754 6.54411 16.5712 7.17482 17.3622C7.49057 17.7582 7.75408 18.0789 7.93929 18.3015C8.03192 18.4127 8.10503 18.4995 8.15536 18.5589C8.18053 18.5887 8.20001 18.6115 8.2134 18.6272C8.22009 18.635 8.22526 18.6411 8.22886 18.6453C8.23066 18.6474 8.23206 18.649 8.23307 18.6502C8.23357 18.6508 8.23397 18.6512 8.23427 18.6516C8.23443 18.6518 8.23458 18.6519 8.23465 18.652C8.23478 18.6522 8.23488 18.6523 8.99285 18ZM10.6455 6.6315C10.6455 7.54422 9.90555 8.28413 8.99283 8.28413V10.2841C11.0101 10.2841 12.6455 8.64879 12.6455 6.6315H10.6455ZM8.99283 4.97887C9.90555 4.97887 10.6455 5.71878 10.6455 6.6315H12.6455C12.6455 4.61421 11.0101 2.97887 8.99283 2.97887V4.97887ZM7.3402 6.6315C7.3402 5.71878 8.08011 4.97887 8.99283 4.97887V2.97887C6.97554 2.97887 5.3402 4.61421 5.3402 6.6315H7.3402ZM8.99283 8.28413C8.08011 8.28413 7.3402 7.54422 7.3402 6.6315H5.3402C5.3402 8.64879 6.97554 10.2841 8.99283 10.2841V8.28413Z" fill="#DA251C" mask="url(#path-2-inside-1)"/>
</g>
</svg>
