<svg width="46" height="46" viewBox="0 0 46 46" fill="none" xmlns="http://www.w3.org/2000/svg">
<path d="M45.4396 0.384033H0.453125V45.1362H45.4396V0.384033Z" fill="white"/>
<path fill-rule="evenodd" clip-rule="evenodd" d="M6.43424 20.4229C6.27303 20.5423 6.13912 20.6943 6.04136 20.869C5.94361 21.0437 5.88425 21.2371 5.86719 21.4363C5.85013 21.6355 5.87576 21.836 5.9424 22.0247C6.00904 22.2133 6.11517 22.3857 6.25376 22.5305C6.65649 22.8381 7.1071 23.0781 7.58774 23.2409C7.84585 23.3292 8.0892 23.4555 8.30966 23.6155C8.35505 23.6572 8.39109 23.708 8.41543 23.7645C8.43977 23.821 8.45186 23.8819 8.45091 23.9434C8.45091 24.2947 8.12918 24.4664 7.49358 24.4664C6.96016 24.4553 6.43132 24.3659 5.92419 24.201V25.1611C6.43936 25.2766 6.9655 25.3368 7.49358 25.3407C8.03921 25.3692 8.58221 25.2477 9.06297 24.9894C9.28661 24.8648 9.47195 24.682 9.59913 24.4606C9.7263 24.2392 9.79052 23.9876 9.78489 23.7326C9.79064 23.5598 9.76091 23.3875 9.6975 23.2265C9.63409 23.0654 9.53833 22.9189 9.41608 22.7959C9.03588 22.4895 8.60954 22.2445 8.15272 22.0699C7.70544 21.867 7.43865 21.7421 7.36803 21.6796C7.31142 21.6471 7.26429 21.6005 7.23127 21.5444C7.19825 21.4883 7.18048 21.4246 7.1797 21.3596C7.1797 21.0239 7.48573 20.8522 8.08995 20.8522C8.54237 20.8632 8.98902 20.9558 9.40823 21.1254V20.2121C8.92197 20.1186 8.42823 20.069 7.93301 20.0638C7.40421 20.0405 6.88099 20.1795 6.43424 20.4619" fill="white"/>
<path d="M12.0826 20.1179H10.6858V25.2387H12.0826V20.1179Z" fill="white"/>
<path fill-rule="evenodd" clip-rule="evenodd" d="M13.4709 20.1179V25.2387H17.2061V24.3098H14.852V23.0452H16.853V22.2646H14.8442V21.0937H17.1433V20.1179H13.4709Z" fill="white"/>
<path fill-rule="evenodd" clip-rule="evenodd" d="M22.7469 20.1179L21.4129 23.4043C21.4129 23.4043 20.126 20.1491 20.1104 20.1179H18.2192V25.2387H19.1844V21.6245L20.6753 25.3324H21.5385L23.1157 21.6245V25.2621H24.434V20.1179H22.7469Z" fill="white"/>
<path fill-rule="evenodd" clip-rule="evenodd" d="M25.8853 20.1179V25.2387H29.6204V24.3098H27.2663V23.0452H29.2594V22.2646H27.2585V21.0937H29.5419V20.1179H25.8853Z" fill="white"/>
<path fill-rule="evenodd" clip-rule="evenodd" d="M36.6037 20.4224C36.4425 20.5418 36.3086 20.6938 36.2108 20.8685C36.113 21.0432 36.0537 21.2366 36.0366 21.4358C36.0196 21.635 36.0452 21.8356 36.1118 22.0242C36.1785 22.2128 36.2846 22.3852 36.4232 22.53C36.8282 22.8341 37.2782 23.0738 37.7572 23.2404C38.0166 23.3312 38.2622 23.4573 38.487 23.6151C38.5298 23.6583 38.5637 23.7095 38.5865 23.7657C38.6094 23.822 38.6209 23.8822 38.6203 23.9429C38.6203 24.2942 38.2986 24.4659 37.663 24.4659C37.1452 24.4523 36.6323 24.3629 36.1407 24.2005V25.1607C36.6557 25.277 37.182 25.3372 37.7101 25.3402C38.2558 25.3692 38.7989 25.2476 39.2795 24.9889C39.5034 24.8653 39.6886 24.6825 39.8147 24.4607C39.9407 24.2389 40.0026 23.9868 39.9936 23.7322C40.0008 23.5598 39.9725 23.3878 39.9105 23.2267C39.8484 23.0656 39.7538 22.9188 39.6326 22.7954C39.2544 22.4903 38.8308 22.2454 38.3771 22.0695C37.922 21.8665 37.6552 21.7416 37.5924 21.6792C37.5358 21.6467 37.4887 21.6001 37.4556 21.5439C37.4226 21.4878 37.4048 21.4241 37.4041 21.3591C37.4041 21.0234 37.7101 20.8517 38.3065 20.8517C38.7615 20.862 39.2109 20.9546 39.6326 21.1249V20.2116H39.5228C39.0785 20.1201 38.6267 20.0704 38.1731 20.0633C37.6443 20.04 37.121 20.179 36.6743 20.4614" fill="white"/>
<path fill-rule="evenodd" clip-rule="evenodd" d="M5.9385 25.184V24.1614C6.44491 24.3302 6.97395 24.4223 7.50789 24.4346C8.1278 24.4346 8.44168 24.2707 8.44168 23.9428C8.44181 23.8849 8.42924 23.8276 8.40484 23.7751C8.38045 23.7225 8.34482 23.6758 8.30043 23.6384C8.08104 23.4831 7.84062 23.3596 7.58636 23.2715C7.10637 23.1037 6.65613 22.8613 6.25238 22.5533C6.11866 22.4271 6.0132 22.2743 5.94289 22.1048C5.87258 21.9354 5.839 21.753 5.84434 21.5698C5.83323 21.3397 5.88147 21.1106 5.98448 20.9043C6.08749 20.6979 6.24185 20.5213 6.43286 20.391C6.88548 20.1088 7.41362 19.9699 7.94732 19.9929C8.44887 20.0116 8.94778 20.0743 9.43824 20.1803V21.1716C9.01414 20.9894 8.55833 20.8912 8.09641 20.8828C7.50789 20.8828 7.21756 21.0389 7.21756 21.359C7.21988 21.4187 7.23682 21.4769 7.26691 21.5286C7.297 21.5803 7.33931 21.6239 7.39018 21.6556C7.49219 21.7103 7.75899 21.843 8.17488 22.0381C8.63278 22.2138 9.05934 22.4616 9.43824 22.7719C9.56333 22.8981 9.66125 23.0483 9.72601 23.2134C9.79077 23.3784 9.82101 23.5549 9.8149 23.732C9.82871 23.9861 9.77329 24.2392 9.65451 24.4645C9.53573 24.6898 9.35799 24.8791 9.14006 25.0122C8.66037 25.274 8.11711 25.3983 7.57067 25.3713C7.04214 25.3675 6.51571 25.3046 6.00127 25.184" fill="#00AAAD"/>
<path d="M12.1062 20.0867H10.6545V25.2699H12.1062V20.0867Z" fill="#00AAAD"/>
<path fill-rule="evenodd" clip-rule="evenodd" d="M13.448 25.2699V20.0867H17.1753V21.0234H14.8447V22.1943H16.8771V23.0452H14.8447V24.2785H17.2381V25.2699H13.448Z" fill="#00AAAD"/>
<path fill-rule="evenodd" clip-rule="evenodd" d="M18.1868 25.2699V20.0867H20.07L21.3805 23.3964L22.7302 20.0867H24.5193V25.2699H23.1382V21.601L21.608 25.3167H20.7135L19.2147 21.601V25.2699H18.1868Z" fill="#00AAAD"/>
<path fill-rule="evenodd" clip-rule="evenodd" d="M25.8535 25.2699V20.0867H29.5886V21.0234H27.2581V22.1943H29.2826V23.0452H27.2581V24.2785H29.6436V25.2699H25.8535Z" fill="#00AAAD"/>
<path fill-rule="evenodd" clip-rule="evenodd" d="M30.6018 25.2699V20.0867H32.2889L34.078 23.5526V20.0867H35.106V25.2699H33.4659L31.6298 21.7494V25.2699H30.6018Z" fill="#00AAAD"/>
<path fill-rule="evenodd" clip-rule="evenodd" d="M36.1405 25.184V24.1614C36.6469 24.3302 37.1759 24.4223 37.7099 24.4346C38.3298 24.4346 38.6437 24.2707 38.6437 23.9428C38.6433 23.8857 38.6313 23.8293 38.6084 23.777C38.5854 23.7246 38.5521 23.6775 38.5103 23.6384C38.2909 23.4831 38.0505 23.3596 37.7962 23.2715C37.3117 23.1084 36.8581 22.8656 36.4544 22.5533C36.3192 22.4266 36.2129 22.2725 36.1425 22.1015C36.0722 21.9306 36.0394 21.7466 36.0463 21.562C36.0358 21.333 36.0844 21.1053 36.1874 20.9003C36.2904 20.6954 36.4445 20.52 36.6348 20.391C37.0875 20.1088 37.6156 19.9699 38.1493 19.9929C38.6091 20.0044 39.0665 20.0619 39.5147 20.1647H39.6481V21.156C39.2183 20.9742 38.7575 20.8762 38.2906 20.8672C37.7099 20.8672 37.4195 21.0233 37.4195 21.3434C37.4219 21.4031 37.4388 21.4613 37.4689 21.513C37.499 21.5647 37.5413 21.6083 37.5922 21.64C37.6863 21.6947 37.961 21.8274 38.3769 22.0225C38.8329 22.202 39.2589 22.4494 39.6402 22.7563C39.7653 22.8825 39.8632 23.0327 39.928 23.1977C39.9928 23.3628 40.023 23.5393 40.0169 23.7164C40.0252 23.9759 39.9615 24.2327 39.8328 24.4585C39.7041 24.6843 39.5153 24.8705 39.2871 24.9966C38.8074 25.2584 38.2642 25.3827 37.7177 25.3557C37.1892 25.3519 36.6628 25.289 36.1483 25.1684" fill="#00AAAD"/>
</svg>
