<svg width="46" height="46" viewBox="0 0 46 46" fill="none" xmlns="http://www.w3.org/2000/svg">
<path d="M45.9145 0.188965H0.535645V45.3314H45.9145V0.188965Z" fill="#7B9AA9"/>
<path d="M23.496 9.61089H24.0924V7.86233C24.1644 7.74188 24.2636 7.63971 24.382 7.56385C24.5005 7.488 24.635 7.44053 24.7751 7.42519C24.8534 7.42115 24.9312 7.44055 24.9983 7.4809C25.0655 7.52126 25.1189 7.5807 25.1517 7.65157C25.1916 7.79369 25.2075 7.94141 25.1988 8.08871V9.61089H25.7952V8.04968C25.8171 7.80244 25.7794 7.55358 25.6853 7.32371C25.6096 7.20565 25.5034 7.11001 25.3777 7.04684C25.2521 6.98366 25.1117 6.95527 24.9713 6.96464C24.7948 6.96279 24.6203 7.00124 24.4611 7.07702C24.302 7.15281 24.1624 7.26391 24.0532 7.40177V7.01928H23.4882C23.4882 7.42519 23.4882 7.57351 23.4882 7.92478L23.496 9.61089ZM21.4872 7.42519C21.9031 7.42519 22.1464 7.76085 22.1464 8.32289C22.1464 8.88493 21.9031 9.22059 21.4872 9.22059C21.0713 9.22059 20.8359 8.87712 20.8359 8.30728C20.8359 7.73744 21.0792 7.42519 21.4872 7.42519ZM21.4872 6.97244C21.3115 6.96224 21.1356 6.99037 20.9719 7.05485C20.8082 7.11934 20.6606 7.21863 20.5396 7.34577C20.4185 7.47292 20.3268 7.62485 20.2709 7.79093C20.215 7.95701 20.1963 8.13324 20.216 8.30728C20.2022 8.48222 20.2249 8.65812 20.2827 8.82391C20.3406 8.9897 20.4322 9.1418 20.552 9.27065C20.6717 9.3995 20.817 9.50232 20.9786 9.57263C21.1402 9.64295 21.3147 9.67925 21.4911 9.67925C21.6675 9.67925 21.842 9.64295 22.0037 9.57263C22.1653 9.50232 22.3105 9.3995 22.4303 9.27065C22.55 9.1418 22.6417 8.9897 22.6995 8.82391C22.7573 8.65812 22.7801 8.48222 22.7663 8.30728C22.7872 8.13161 22.7692 7.9535 22.7135 7.78551C22.6577 7.61751 22.5657 7.46372 22.4437 7.33497C22.3218 7.20621 22.1729 7.10562 22.0076 7.04029C21.8424 6.97495 21.6647 6.94647 21.4872 6.95683V6.97244ZM19.2037 5.82495C19.1059 5.82495 19.0121 5.86361 18.943 5.93241C18.8738 6.00121 18.8349 6.09453 18.8349 6.19184C18.8349 6.28914 18.8738 6.38246 18.943 6.45126C19.0121 6.52007 19.1059 6.55872 19.2037 6.55872C19.3016 6.55872 19.3954 6.52007 19.4645 6.45126C19.5337 6.38246 19.5726 6.28914 19.5726 6.19184C19.5726 6.09453 19.5337 6.00121 19.4645 5.93241C19.3954 5.86361 19.3016 5.82495 19.2037 5.82495ZM18.8977 9.61089H19.4941V7.02708H18.8977V9.61089ZM17.0615 7.47984V8.71319C17.0351 8.95032 17.0816 9.18986 17.1949 9.40013C17.2652 9.49521 17.3597 9.56993 17.4687 9.61658C17.5776 9.66323 17.6971 9.68013 17.8148 9.66553C17.9937 9.66693 18.1715 9.63789 18.3406 9.57967L18.2857 9.13472C18.1963 9.17203 18.1001 9.19063 18.0032 9.18936C17.7442 9.18936 17.6579 9.06447 17.6579 8.68197V7.47984H18.2307V7.02708H17.6344V6.34796L17.038 6.46505V7.02708H16.6613V7.47984H17.0615ZM16.0022 7.02708H15.4058V8.77564C15.3351 8.89551 15.2373 8.99739 15.1201 9.07325C15.003 9.14911 14.8698 9.19687 14.731 9.21278C14.6565 9.21821 14.5821 9.19997 14.5187 9.1607C14.4552 9.12142 14.4059 9.06313 14.3779 8.99421C14.3268 8.85444 14.3081 8.70504 14.323 8.55707V6.99586H13.7266V8.55707C13.7059 8.80172 13.7436 9.04777 13.8364 9.27523C13.9108 9.3909 14.0145 9.485 14.1372 9.54804C14.2598 9.61109 14.3969 9.64085 14.5348 9.63431C14.7095 9.63706 14.8825 9.59977 15.0403 9.52531C15.1982 9.45086 15.3367 9.34125 15.4451 9.20497V9.57967H16.01C16.01 9.2362 16.01 9.03324 16.01 8.67416L16.0022 7.02708ZM12.2357 9.61089H12.832V5.90301H12.2357V9.61089ZM10.2347 7.42519C10.6427 7.42519 10.8938 7.76085 10.8938 8.32289C10.8938 8.88493 10.6427 9.22059 10.2347 9.22059C9.82665 9.22059 9.59909 8.87712 9.59909 8.30728C9.59909 7.73744 9.85019 7.42519 10.2582 7.42519H10.2347ZM10.2582 6.97244C10.0822 6.96242 9.90604 6.9906 9.74203 7.05503C9.57801 7.11946 9.43004 7.2186 9.30837 7.34558C9.1867 7.47256 9.09424 7.62434 9.0374 7.79039C8.98056 7.95645 8.96069 8.13282 8.97918 8.30728C8.95698 8.48355 8.97407 8.66253 9.02923 8.83149C9.0844 9.00046 9.17629 9.15527 9.29838 9.28492C9.42047 9.41457 9.56977 9.51588 9.73566 9.58166C9.90155 9.64745 10.08 9.67608 10.2582 9.66553C10.4299 9.6718 10.6009 9.64159 10.7599 9.57693C10.9189 9.51227 11.0622 9.41463 11.1802 9.29054C11.2983 9.16644 11.3884 9.01873 11.4446 8.85726C11.5007 8.69579 11.5216 8.52426 11.5059 8.35411C11.5281 8.17887 11.5113 8.0009 11.4565 7.83288C11.4017 7.66485 11.3104 7.5109 11.189 7.38197C11.0677 7.25303 10.9192 7.15229 10.7543 7.08691C10.5893 7.02152 10.4119 6.9931 10.2347 7.00367L10.2582 6.97244ZM6.11505 9.4938C6.45267 9.61209 6.80862 9.67022 7.16654 9.66553C7.95123 9.66553 8.40636 9.28304 8.40636 8.61952C8.41253 8.48842 8.38973 8.35758 8.33957 8.23619C8.2894 8.11481 8.2131 8.00585 8.11602 7.91697C7.88981 7.757 7.64132 7.63077 7.37841 7.54228C6.86836 7.33152 6.74281 7.22224 6.74281 6.98805C6.74281 6.75387 6.96252 6.54311 7.29994 6.54311C7.59123 6.54987 7.87763 6.6191 8.13956 6.74607L8.26511 6.22306C7.93723 6.10908 7.59234 6.05102 7.24501 6.05133C6.51524 6.05133 6.06797 6.44163 6.06797 7.07392C6.06149 7.19705 6.08442 7.31996 6.13488 7.43257C6.18535 7.54519 6.26191 7.64431 6.35831 7.72182C6.56912 7.86865 6.79871 7.98679 7.04099 8.0731C7.62951 8.32289 7.72367 8.40876 7.72367 8.66636C7.72367 8.92396 7.48826 9.17375 7.11161 9.17375C6.78356 9.16514 6.46063 9.0908 6.16213 8.95518L6.11505 9.4938Z" fill="white"/>
<path d="M22.1564 16.2537H22.7528V14.7471C22.8626 14.3724 23.098 14.1539 23.3962 14.1539C23.4641 14.1475 23.5324 14.1475 23.6002 14.1539V13.6308C23.5247 13.6205 23.4482 13.6205 23.3727 13.6308C23.2158 13.6347 23.0642 13.6883 22.94 13.7838C22.8158 13.8792 22.7255 14.0116 22.6821 14.1617V13.6699H22.1564C22.1564 14.1382 22.1564 14.4505 22.1564 14.6456V16.2537ZM19.6297 14.7315C19.6297 14.3022 19.8808 14.0446 20.2496 14.0446C20.6184 14.0446 20.8224 14.2944 20.8303 14.7315H19.6297ZM21.4423 15.1452C21.4624 14.8381 21.4197 14.53 21.3168 14.2397C21.2305 14.0345 21.0802 13.8623 20.888 13.7484C20.6959 13.6346 20.4721 13.5852 20.2496 13.6074C20.0748 13.6026 19.9011 13.6355 19.7403 13.7039C19.5796 13.7723 19.4357 13.8746 19.3186 14.0038C19.2014 14.1329 19.1139 14.2858 19.0619 14.4519C19.01 14.6179 18.9948 14.7932 19.0176 14.9657C18.9975 15.1476 19.0189 15.3316 19.0801 15.5041C19.1414 15.6766 19.2409 15.8332 19.3714 15.9622C19.5018 16.0912 19.6598 16.1893 19.8335 16.2492C20.0073 16.3092 20.1924 16.3294 20.3751 16.3083C20.7248 16.3154 21.0697 16.2263 21.3717 16.0507L21.1598 15.6136C20.9282 15.7709 20.6555 15.8577 20.3751 15.8634C19.9122 15.8634 19.6768 15.637 19.6297 15.1452H21.4423ZM15.9966 16.2537H16.5929V14.5051C16.664 14.3839 16.7629 14.281 16.8815 14.2051C17.0002 14.1291 17.1352 14.0821 17.2756 14.068C17.3536 14.0599 17.4321 14.0767 17.4999 14.116C17.5676 14.1553 17.621 14.215 17.6523 14.2866C17.691 14.4289 17.7069 14.5764 17.6993 14.7237V16.2849H18.2957V14.7237C18.3365 14.4725 18.3149 14.2153 18.2329 13.9743C18.1589 13.856 18.0543 13.7596 17.9301 13.6951C17.8059 13.6306 17.6666 13.6003 17.5267 13.6074C17.3489 13.6044 17.1729 13.6422 17.0122 13.7181C16.8516 13.7939 16.7108 13.9056 16.6008 14.0446V13.6621H16.0358C16.0358 14.0758 16.0358 14.2241 16.0358 14.5754L15.9966 16.2537ZM14.1525 14.1148V15.3794C14.1247 15.6157 14.1684 15.8549 14.2781 16.0663C14.3491 16.1611 14.4434 16.236 14.552 16.2838C14.6606 16.3317 14.7798 16.3509 14.898 16.3396C15.0794 16.3409 15.2598 16.3119 15.4316 16.2537L15.3766 15.8009C15.2872 15.839 15.1914 15.8602 15.0942 15.8634C14.8352 15.8634 14.7489 15.7307 14.7489 15.3482V14.1148H15.3374V13.6621H14.7489V12.9908L14.1525 13.1V13.6621H13.7366V14.1148H14.1525ZM11.8769 16.2537H12.4654V14.7471C12.5753 14.3724 12.8107 14.1539 13.1089 14.1539C13.1767 14.1475 13.245 14.1475 13.3129 14.1539V13.6308C13.2374 13.6198 13.1608 13.6198 13.0853 13.6308C12.9284 13.6347 12.7769 13.6883 12.6527 13.7838C12.5285 13.8792 12.4382 14.0116 12.3948 14.1617V13.6699H11.8377C11.8377 14.1382 11.8377 14.4505 11.8377 14.6456L11.8769 16.2537ZM10.3075 15.5433C10.2497 15.6493 10.1649 15.7383 10.0616 15.8013C9.95831 15.8643 9.84014 15.8992 9.719 15.9024C9.66624 15.9058 9.61337 15.898 9.56383 15.8797C9.51428 15.8613 9.46916 15.8328 9.43142 15.796C9.39367 15.7592 9.36413 15.7149 9.34473 15.666C9.32533 15.6171 9.3165 15.5646 9.31881 15.5121C9.31881 15.1921 9.54637 15.0437 10.0407 15.0437H10.386L10.3075 15.5433ZM10.3625 16.2537H10.9353C10.9353 16.121 10.9353 15.8087 10.9353 15.5902V14.8096C10.9797 14.5076 10.9128 14.1998 10.7469 13.9431C10.6332 13.8207 10.4926 13.7261 10.3361 13.6665C10.1796 13.607 10.0114 13.5841 9.84455 13.5996C9.51681 13.5975 9.19353 13.6753 8.90292 13.826L9.05986 14.2553C9.26985 14.1177 9.51467 14.0419 9.76608 14.0368C9.84598 14.0219 9.92825 14.0258 10.0064 14.0479C10.0846 14.07 10.1565 14.1099 10.2166 14.1644C10.2767 14.2188 10.3232 14.2864 10.3526 14.3618C10.382 14.4372 10.3934 14.5183 10.386 14.5988V14.6534H9.96226C9.69368 14.6323 9.42402 14.6779 9.17756 14.7861C9.04767 14.8566 8.94045 14.9621 8.86825 15.0906C8.79606 15.219 8.76183 15.3651 8.76952 15.5121C8.76933 15.6187 8.79107 15.7242 8.83342 15.8221C8.87577 15.92 8.93781 16.0082 9.01574 16.0813C9.09367 16.1545 9.18582 16.2109 9.28653 16.2473C9.38724 16.2837 9.49436 16.2991 9.6013 16.2927C9.75016 16.2962 9.89793 16.2665 10.0337 16.2057C10.1695 16.1449 10.2899 16.0546 10.386 15.9414L10.3625 16.2537ZM6.70578 14.3724V13.2249H6.93334C7.13348 13.204 7.33538 13.242 7.51401 13.3342C7.58871 13.3885 7.64863 13.4605 7.68836 13.5437C7.72809 13.6268 7.74637 13.7185 7.74157 13.8104C7.74971 13.9053 7.7304 14.0006 7.68591 14.0849C7.64142 14.1693 7.57361 14.2393 7.49047 14.2866C7.30388 14.3611 7.10219 14.3905 6.90195 14.3724H6.70578ZM6.10156 16.2537H6.71362V14.8486H7.00396C7.33406 14.8825 7.66648 14.8115 7.95344 14.6456C8.08106 14.544 8.18407 14.4151 8.25485 14.2685C8.32564 14.1219 8.36239 13.9613 8.36239 13.7987C8.36239 13.636 8.32564 13.4755 8.25485 13.3289C8.18407 13.1823 8.08106 13.0534 7.95344 12.9517C7.64589 12.7719 7.28741 12.6979 6.93334 12.741H6.10156V16.2537Z" fill="white"/>
<path d="M11.2648 39.7892H11.6572V36.8697C11.8141 37.3693 11.8534 37.4864 11.9711 37.7908L12.7558 39.7892H13.2344L14.0191 37.7596C14.1368 37.4317 14.1604 37.3771 14.3173 36.8697V39.7892H14.7254V36.2842H14.1525L13.1717 38.9383C13.101 39.1413 13.0618 39.2506 13.0069 39.4301C12.9362 39.2271 12.9049 39.1257 12.8342 38.9383L11.8298 36.2842H11.2648V39.7892ZM8.76952 39.7892H10.7077V39.4613H9.17756V36.2842H8.76952V39.7892ZM6.5096 38.0172V36.6199H6.73717C6.9755 36.5946 7.21599 36.6408 7.4277 36.7526C7.51092 36.8184 7.57713 36.903 7.62081 36.9994C7.66449 37.0958 7.68437 37.2012 7.6788 37.3068C7.68933 37.4174 7.66844 37.5288 7.6185 37.6281C7.56855 37.7275 7.49157 37.8109 7.39631 37.8689C7.16765 37.9613 6.92032 37.9987 6.67439 37.9782L6.5096 38.0172ZM6.10156 39.8282H6.5096V38.3138H6.72932C7.04434 38.337 7.36014 38.2806 7.64741 38.1499C7.79839 38.0685 7.92289 37.9459 8.00629 37.7966C8.08969 37.6473 8.12852 37.4774 8.11823 37.3068C8.13029 37.142 8.09901 36.9768 8.02746 36.8277C7.95592 36.6785 7.84658 36.5504 7.71019 36.456C7.42821 36.3004 7.10491 36.235 6.78425 36.2686H6.10156V39.8282Z" fill="white"/>
</svg>
